<mxfile host="app.diagrams.net" agent="Mozilla/5.0 (Windows NT 10.0; Win64; x64) AppleWebKit/537.36 (KHTML, like Gecko) Chrome/130.0.0.0 Safari/537.36" version="24.8.3">
  <diagram name="Page-1" id="6133507b-19e7-1e82-6fc7-422aa6c4b21f">
    <mxGraphModel dx="2693" dy="867" grid="1" gridSize="10" guides="1" tooltips="1" connect="1" arrows="1" fold="1" page="1" pageScale="1" pageWidth="1100" pageHeight="850" background="none" math="0" shadow="0">
      <root>
        <mxCell id="0" />
        <mxCell id="1" parent="0" />
        <object label="&lt;div&gt;CreateUserWindow&lt;/div&gt;&lt;div&gt;&lt;br&gt;&lt;/div&gt;" AssignmentsWindow="" id="78961159f06e98e8-17">
          <mxCell style="swimlane;html=1;fontStyle=1;align=center;verticalAlign=top;childLayout=stackLayout;horizontal=1;startSize=26;horizontalStack=0;resizeParent=1;resizeLast=0;collapsible=1;marginBottom=0;swimlaneFillColor=#ffffff;rounded=0;shadow=0;comic=0;labelBackgroundColor=none;strokeWidth=1;fillColor=none;fontFamily=Verdana;fontSize=12;movable=1;resizable=1;rotatable=1;deletable=1;editable=1;locked=0;connectable=1;" parent="1" vertex="1">
            <mxGeometry x="600" y="90" width="320" height="180" as="geometry" />
          </mxCell>
        </object>
        <mxCell id="w_FCNFXschIVTDnrTgpB-2" value="&amp;nbsp;" style="text;strokeColor=none;fillColor=none;align=left;verticalAlign=top;spacingLeft=4;spacingRight=4;overflow=hidden;rotatable=0;points=[[0,0.5],[1,0.5]];portConstraint=eastwest;whiteSpace=wrap;html=1;" parent="78961159f06e98e8-17" vertex="1">
          <mxGeometry y="26" width="320" height="26" as="geometry" />
        </mxCell>
        <mxCell id="w_FCNFXschIVTDnrTgpB-6" value="&amp;lt;&amp;lt;constructor&amp;gt;&amp;gt; CreateLoginWindow() " style="text;strokeColor=none;fillColor=none;align=left;verticalAlign=top;spacingLeft=4;spacingRight=4;overflow=hidden;rotatable=0;points=[[0,0.5],[1,0.5]];portConstraint=eastwest;whiteSpace=wrap;html=1;" parent="78961159f06e98e8-17" vertex="1">
          <mxGeometry y="52" width="320" height="26" as="geometry" />
        </mxCell>
        <mxCell id="78961159f06e98e8-43" value="LoginWindow" style="swimlane;html=1;fontStyle=1;align=center;verticalAlign=top;childLayout=stackLayout;horizontal=1;startSize=26;horizontalStack=0;resizeParent=1;resizeLast=0;collapsible=1;marginBottom=0;swimlaneFillColor=#ffffff;rounded=0;shadow=0;comic=0;labelBackgroundColor=none;strokeWidth=1;fillColor=none;fontFamily=Verdana;fontSize=12" parent="1" vertex="1">
          <mxGeometry x="30" y="150" width="350" height="60" as="geometry" />
        </mxCell>
        <mxCell id="w_FCNFXschIVTDnrTgpB-13" value="" style="line;strokeWidth=1;fillColor=none;align=left;verticalAlign=middle;spacingTop=-1;spacingLeft=3;spacingRight=3;rotatable=0;labelPosition=right;points=[];portConstraint=eastwest;strokeColor=inherit;" parent="78961159f06e98e8-43" vertex="1">
          <mxGeometry y="26" width="350" height="8" as="geometry" />
        </mxCell>
        <mxCell id="w_FCNFXschIVTDnrTgpB-14" value="&amp;lt;&amp;lt;constructor&amp;gt;&amp;gt; LoginWindow() " style="text;strokeColor=none;fillColor=none;align=left;verticalAlign=top;spacingLeft=4;spacingRight=4;overflow=hidden;rotatable=0;points=[[0,0.5],[1,0.5]];portConstraint=eastwest;whiteSpace=wrap;html=1;" parent="78961159f06e98e8-43" vertex="1">
          <mxGeometry y="34" width="350" height="26" as="geometry" />
        </mxCell>
        <mxCell id="LiIIhhn5Ps5Z9-WXhKOp-2" value="View" style="shape=umlFrame;whiteSpace=wrap;html=1;pointerEvents=0;" parent="1" vertex="1">
          <mxGeometry x="-70" y="10" width="1240" height="320" as="geometry" />
        </mxCell>
        <mxCell id="LiIIhhn5Ps5Z9-WXhKOp-3" value="ViewModel" style="shape=umlFrame;whiteSpace=wrap;html=1;pointerEvents=0;" parent="1" vertex="1">
          <mxGeometry x="-70" y="330" width="1240" height="440" as="geometry" />
        </mxCell>
        <mxCell id="LiIIhhn5Ps5Z9-WXhKOp-4" value="Model" style="shape=umlFrame;whiteSpace=wrap;html=1;pointerEvents=0;" parent="1" vertex="1">
          <mxGeometry x="-430" y="770" width="1600" height="390" as="geometry" />
        </mxCell>
        <mxCell id="wk8aedMz6wveuseHpSyb-1" value="UserRepo" style="swimlane;fontStyle=1;align=center;verticalAlign=top;childLayout=stackLayout;horizontal=1;startSize=26;horizontalStack=0;resizeParent=1;resizeParentMax=0;resizeLast=0;collapsible=1;marginBottom=0;whiteSpace=wrap;html=1;" parent="1" vertex="1">
          <mxGeometry y="860" width="400" height="98" as="geometry" />
        </mxCell>
        <mxCell id="wk8aedMz6wveuseHpSyb-3" value="" style="line;strokeWidth=1;fillColor=none;align=left;verticalAlign=middle;spacingTop=-1;spacingLeft=3;spacingRight=3;rotatable=0;labelPosition=right;points=[];portConstraint=eastwest;strokeColor=inherit;" parent="wk8aedMz6wveuseHpSyb-1" vertex="1">
          <mxGeometry y="26" width="400" height="8" as="geometry" />
        </mxCell>
        <mxCell id="SzCHpWfluS4ez0um-08P-16" value="+ InsertUser(User user):&amp;nbsp;" style="text;html=1;strokeColor=none;fillColor=none;align=left;verticalAlign=top;spacingLeft=4;spacingRight=4;whiteSpace=wrap;overflow=hidden;rotatable=0;points=[[0,0.5],[1,0.5]];portConstraint=eastwest;" parent="wk8aedMz6wveuseHpSyb-1" vertex="1">
          <mxGeometry y="34" width="400" height="30" as="geometry" />
        </mxCell>
        <mxCell id="w_FCNFXschIVTDnrTgpB-23" value="" style="line;strokeWidth=1;fillColor=none;align=left;verticalAlign=middle;spacingTop=-1;spacingLeft=3;spacingRight=3;rotatable=0;labelPosition=right;points=[];portConstraint=eastwest;strokeColor=inherit;" parent="wk8aedMz6wveuseHpSyb-1" vertex="1">
          <mxGeometry y="64" width="400" height="8" as="geometry" />
        </mxCell>
        <mxCell id="w_FCNFXschIVTDnrTgpB-24" value="&amp;lt;&amp;lt;constructor&amp;gt;&amp;gt; UserRepo()" style="text;strokeColor=none;fillColor=none;align=left;verticalAlign=top;spacingLeft=4;spacingRight=4;overflow=hidden;rotatable=0;points=[[0,0.5],[1,0.5]];portConstraint=eastwest;whiteSpace=wrap;html=1;" parent="wk8aedMz6wveuseHpSyb-1" vertex="1">
          <mxGeometry y="72" width="400" height="26" as="geometry" />
        </mxCell>
        <mxCell id="wk8aedMz6wveuseHpSyb-50" value="" style="endArrow=none;html=1;rounded=0;exitX=1.005;exitY=0.962;exitDx=0;exitDy=0;entryX=-0.01;entryY=0;entryDx=0;entryDy=0;entryPerimeter=0;exitPerimeter=0;" parent="1" target="XEh1SE8O8s3GZXqMS5hk-19" edge="1">
          <mxGeometry width="50" height="50" relative="1" as="geometry">
            <mxPoint x="402" y="901.012" as="sourcePoint" />
            <mxPoint x="580" y="1010" as="targetPoint" />
          </mxGeometry>
        </mxCell>
        <mxCell id="wk8aedMz6wveuseHpSyb-53" value="0...*" style="edgeLabel;html=1;align=center;verticalAlign=middle;resizable=0;points=[];" parent="wk8aedMz6wveuseHpSyb-50" vertex="1" connectable="0">
          <mxGeometry x="0.6923" relative="1" as="geometry">
            <mxPoint x="-112" y="9" as="offset" />
          </mxGeometry>
        </mxCell>
        <mxCell id="wk8aedMz6wveuseHpSyb-54" value="1" style="edgeLabel;html=1;align=center;verticalAlign=middle;resizable=0;points=[];" parent="wk8aedMz6wveuseHpSyb-50" vertex="1" connectable="0">
          <mxGeometry x="-0.7564" y="1" relative="1" as="geometry">
            <mxPoint x="120" y="-14" as="offset" />
          </mxGeometry>
        </mxCell>
        <mxCell id="wk8aedMz6wveuseHpSyb-57" value="LoginViewModel" style="swimlane;fontStyle=1;align=center;verticalAlign=top;childLayout=stackLayout;horizontal=1;startSize=26;horizontalStack=0;resizeParent=1;resizeParentMax=0;resizeLast=0;collapsible=1;marginBottom=0;whiteSpace=wrap;html=1;" parent="1" vertex="1">
          <mxGeometry x="80" y="560" width="220" height="78" as="geometry" />
        </mxCell>
        <mxCell id="wk8aedMz6wveuseHpSyb-62" value="- _userRepo: UserRepo" style="text;strokeColor=none;fillColor=none;align=left;verticalAlign=top;spacingLeft=4;spacingRight=4;overflow=hidden;rotatable=0;points=[[0,0.5],[1,0.5]];portConstraint=eastwest;whiteSpace=wrap;html=1;" parent="wk8aedMz6wveuseHpSyb-57" vertex="1">
          <mxGeometry y="26" width="220" height="26" as="geometry" />
        </mxCell>
        <mxCell id="XEh1SE8O8s3GZXqMS5hk-32" value="&amp;lt;&amp;lt;constructor&amp;gt;&amp;gt; LoginViewModel" style="text;strokeColor=default;fillColor=none;align=left;verticalAlign=top;spacingLeft=4;spacingRight=4;overflow=hidden;rotatable=0;points=[[0,0.5],[1,0.5]];portConstraint=eastwest;whiteSpace=wrap;html=1;" parent="wk8aedMz6wveuseHpSyb-57" vertex="1">
          <mxGeometry y="52" width="220" height="26" as="geometry" />
        </mxCell>
        <mxCell id="wk8aedMz6wveuseHpSyb-61" value="CreateUserViewModel" style="swimlane;fontStyle=1;align=center;verticalAlign=top;childLayout=stackLayout;horizontal=1;startSize=26;horizontalStack=0;resizeParent=1;resizeParentMax=0;resizeLast=0;collapsible=1;marginBottom=0;whiteSpace=wrap;html=1;" parent="1" vertex="1">
          <mxGeometry x="570" y="370" width="380" height="308" as="geometry" />
        </mxCell>
        <mxCell id="SzCHpWfluS4ez0um-08P-28" value="+ EnteredEmail: String" style="text;html=1;strokeColor=none;fillColor=none;align=left;verticalAlign=top;spacingLeft=4;spacingRight=4;whiteSpace=wrap;overflow=hidden;rotatable=0;points=[[0,0.5],[1,0.5]];portConstraint=eastwest;" parent="wk8aedMz6wveuseHpSyb-61" vertex="1">
          <mxGeometry y="26" width="380" height="30" as="geometry" />
        </mxCell>
        <mxCell id="SzCHpWfluS4ez0um-08P-29" value="+ EnteredPhoneNumber: String" style="text;html=1;strokeColor=none;fillColor=none;align=left;verticalAlign=top;spacingLeft=4;spacingRight=4;whiteSpace=wrap;overflow=hidden;rotatable=0;points=[[0,0.5],[1,0.5]];portConstraint=eastwest;" parent="wk8aedMz6wveuseHpSyb-61" vertex="1">
          <mxGeometry y="56" width="380" height="30" as="geometry" />
        </mxCell>
        <mxCell id="SzCHpWfluS4ez0um-08P-30" value="+ EnteredFirstName: String" style="text;html=1;strokeColor=none;fillColor=none;align=left;verticalAlign=top;spacingLeft=4;spacingRight=4;whiteSpace=wrap;overflow=hidden;rotatable=0;points=[[0,0.5],[1,0.5]];portConstraint=eastwest;" parent="wk8aedMz6wveuseHpSyb-61" vertex="1">
          <mxGeometry y="86" width="380" height="30" as="geometry" />
        </mxCell>
        <mxCell id="SzCHpWfluS4ez0um-08P-31" value="+ EnteredLastName: String" style="text;html=1;strokeColor=none;fillColor=none;align=left;verticalAlign=top;spacingLeft=4;spacingRight=4;whiteSpace=wrap;overflow=hidden;rotatable=0;points=[[0,0.5],[1,0.5]];portConstraint=eastwest;" parent="wk8aedMz6wveuseHpSyb-61" vertex="1">
          <mxGeometry y="116" width="380" height="30" as="geometry" />
        </mxCell>
        <mxCell id="SzCHpWfluS4ez0um-08P-32" value="+ EnteredPassword: String" style="text;html=1;strokeColor=none;fillColor=none;align=left;verticalAlign=top;spacingLeft=4;spacingRight=4;whiteSpace=wrap;overflow=hidden;rotatable=0;points=[[0,0.5],[1,0.5]];portConstraint=eastwest;" parent="wk8aedMz6wveuseHpSyb-61" vertex="1">
          <mxGeometry y="146" width="380" height="30" as="geometry" />
        </mxCell>
        <mxCell id="SzCHpWfluS4ez0um-08P-33" value="+ EnteredPasswordAgain: String" style="text;html=1;strokeColor=none;fillColor=none;align=left;verticalAlign=top;spacingLeft=4;spacingRight=4;whiteSpace=wrap;overflow=hidden;rotatable=0;points=[[0,0.5],[1,0.5]];portConstraint=eastwest;" parent="wk8aedMz6wveuseHpSyb-61" vertex="1">
          <mxGeometry y="176" width="380" height="30" as="geometry" />
        </mxCell>
        <mxCell id="wk8aedMz6wveuseHpSyb-63" value="" style="line;strokeWidth=1;fillColor=none;align=left;verticalAlign=middle;spacingTop=-1;spacingLeft=3;spacingRight=3;rotatable=0;labelPosition=right;points=[];portConstraint=eastwest;strokeColor=inherit;" parent="wk8aedMz6wveuseHpSyb-61" vertex="1">
          <mxGeometry y="206" width="380" height="8" as="geometry" />
        </mxCell>
        <mxCell id="wk8aedMz6wveuseHpSyb-44" value="+ CreateNewUser():&amp;nbsp;" style="text;html=1;strokeColor=none;fillColor=none;align=left;verticalAlign=top;spacingLeft=4;spacingRight=4;whiteSpace=wrap;overflow=hidden;rotatable=0;points=[[0,0.5],[1,0.5]];portConstraint=eastwest;" parent="wk8aedMz6wveuseHpSyb-61" vertex="1">
          <mxGeometry y="214" width="380" height="30" as="geometry" />
        </mxCell>
        <mxCell id="XEh1SE8O8s3GZXqMS5hk-25" value="+ CheckIfUserExist(email: String): Bool&amp;nbsp;" style="text;html=1;strokeColor=none;fillColor=none;align=left;verticalAlign=top;spacingLeft=4;spacingRight=4;whiteSpace=wrap;overflow=hidden;rotatable=0;points=[[0,0.5],[1,0.5]];portConstraint=eastwest;" parent="wk8aedMz6wveuseHpSyb-61" vertex="1">
          <mxGeometry y="244" width="380" height="30" as="geometry" />
        </mxCell>
        <mxCell id="w_FCNFXschIVTDnrTgpB-22" value="" style="line;strokeWidth=1;fillColor=none;align=left;verticalAlign=middle;spacingTop=-1;spacingLeft=3;spacingRight=3;rotatable=0;labelPosition=right;points=[];portConstraint=eastwest;strokeColor=inherit;" parent="wk8aedMz6wveuseHpSyb-61" vertex="1">
          <mxGeometry y="274" width="380" height="8" as="geometry" />
        </mxCell>
        <mxCell id="w_FCNFXschIVTDnrTgpB-21" value="&amp;lt;&amp;lt;constructor&amp;gt;&amp;gt; CreateUserViewModel()" style="text;strokeColor=none;fillColor=none;align=left;verticalAlign=top;spacingLeft=4;spacingRight=4;overflow=hidden;rotatable=0;points=[[0,0.5],[1,0.5]];portConstraint=eastwest;whiteSpace=wrap;html=1;" parent="wk8aedMz6wveuseHpSyb-61" vertex="1">
          <mxGeometry y="282" width="380" height="26" as="geometry" />
        </mxCell>
        <mxCell id="wk8aedMz6wveuseHpSyb-65" value="" style="endArrow=none;html=1;rounded=0;startArrow=classic;startFill=1;exitX=0.485;exitY=0.015;exitDx=0;exitDy=0;exitPerimeter=0;" parent="1" source="wk8aedMz6wveuseHpSyb-1" target="wk8aedMz6wveuseHpSyb-57" edge="1">
          <mxGeometry width="50" height="50" relative="1" as="geometry">
            <mxPoint x="190" y="850" as="sourcePoint" />
            <mxPoint x="560" y="580" as="targetPoint" />
          </mxGeometry>
        </mxCell>
        <mxCell id="w_FCNFXschIVTDnrTgpB-5" value="" style="line;strokeWidth=1;fillColor=none;align=left;verticalAlign=middle;spacingTop=-1;spacingLeft=3;spacingRight=3;rotatable=0;labelPosition=right;points=[];portConstraint=eastwest;strokeColor=inherit;" parent="1" vertex="1">
          <mxGeometry x="600" y="140" width="320" height="8" as="geometry" />
        </mxCell>
        <mxCell id="w_FCNFXschIVTDnrTgpB-17" value="" style="endArrow=classic;html=1;rounded=0;entryX=0.5;entryY=0;entryDx=0;entryDy=0;exitX=0.457;exitY=0.885;exitDx=0;exitDy=0;exitPerimeter=0;" parent="1" source="w_FCNFXschIVTDnrTgpB-14" target="wk8aedMz6wveuseHpSyb-57" edge="1">
          <mxGeometry width="50" height="50" relative="1" as="geometry">
            <mxPoint x="620" y="330" as="sourcePoint" />
            <mxPoint x="670" y="280" as="targetPoint" />
          </mxGeometry>
        </mxCell>
        <mxCell id="w_FCNFXschIVTDnrTgpB-20" value="" style="endArrow=classic;html=1;rounded=0;exitX=0.5;exitY=1;exitDx=0;exitDy=0;" parent="1" source="78961159f06e98e8-17" target="wk8aedMz6wveuseHpSyb-61" edge="1">
          <mxGeometry width="50" height="50" relative="1" as="geometry">
            <mxPoint x="190" y="280" as="sourcePoint" />
            <mxPoint x="220" y="190" as="targetPoint" />
          </mxGeometry>
        </mxCell>
        <mxCell id="XEh1SE8O8s3GZXqMS5hk-3" value="Database" style="shape=umlFrame;whiteSpace=wrap;html=1;pointerEvents=0;" parent="1" vertex="1">
          <mxGeometry x="-70" y="1160" width="1240" height="470" as="geometry" />
        </mxCell>
        <mxCell id="XEh1SE8O8s3GZXqMS5hk-14" value="User" style="swimlane;fontStyle=1;align=center;verticalAlign=top;childLayout=stackLayout;horizontal=1;startSize=26;horizontalStack=0;resizeParent=1;resizeParentMax=0;resizeLast=0;collapsible=1;marginBottom=0;whiteSpace=wrap;html=1;" parent="1" vertex="1">
          <mxGeometry x="560" y="806" width="400" height="300" as="geometry" />
        </mxCell>
        <mxCell id="XEh1SE8O8s3GZXqMS5hk-17" value="+ UserID: int" style="text;html=1;strokeColor=none;fillColor=none;align=left;verticalAlign=top;spacingLeft=4;spacingRight=4;whiteSpace=wrap;overflow=hidden;rotatable=0;points=[[0,0.5],[1,0.5]];portConstraint=eastwest;" parent="XEh1SE8O8s3GZXqMS5hk-14" vertex="1">
          <mxGeometry y="26" width="400" height="30" as="geometry" />
        </mxCell>
        <mxCell id="XEh1SE8O8s3GZXqMS5hk-18" value="+ Email: string" style="text;html=1;strokeColor=none;fillColor=none;align=left;verticalAlign=top;spacingLeft=4;spacingRight=4;whiteSpace=wrap;overflow=hidden;rotatable=0;points=[[0,0.5],[1,0.5]];portConstraint=eastwest;" parent="XEh1SE8O8s3GZXqMS5hk-14" vertex="1">
          <mxGeometry y="56" width="400" height="26" as="geometry" />
        </mxCell>
        <mxCell id="XEh1SE8O8s3GZXqMS5hk-19" value="+ TelephoneNumber: string" style="text;html=1;strokeColor=none;fillColor=none;align=left;verticalAlign=top;spacingLeft=4;spacingRight=4;whiteSpace=wrap;overflow=hidden;rotatable=0;points=[[0,0.5],[1,0.5]];portConstraint=eastwest;" parent="XEh1SE8O8s3GZXqMS5hk-14" vertex="1">
          <mxGeometry y="82" width="400" height="26" as="geometry" />
        </mxCell>
        <mxCell id="XEh1SE8O8s3GZXqMS5hk-22" value="+ FirstName: string" style="text;html=1;strokeColor=none;fillColor=none;align=left;verticalAlign=top;spacingLeft=4;spacingRight=4;whiteSpace=wrap;overflow=hidden;rotatable=0;points=[[0,0.5],[1,0.5]];portConstraint=eastwest;" parent="XEh1SE8O8s3GZXqMS5hk-14" vertex="1">
          <mxGeometry y="108" width="400" height="26" as="geometry" />
        </mxCell>
        <mxCell id="XEh1SE8O8s3GZXqMS5hk-23" value="+ LastName: string" style="text;html=1;strokeColor=none;fillColor=none;align=left;verticalAlign=top;spacingLeft=4;spacingRight=4;whiteSpace=wrap;overflow=hidden;rotatable=0;points=[[0,0.5],[1,0.5]];portConstraint=eastwest;" parent="XEh1SE8O8s3GZXqMS5hk-14" vertex="1">
          <mxGeometry y="134" width="400" height="26" as="geometry" />
        </mxCell>
        <mxCell id="SzCHpWfluS4ez0um-08P-27" value="+ Password: string" style="text;html=1;strokeColor=none;fillColor=none;align=left;verticalAlign=top;spacingLeft=4;spacingRight=4;whiteSpace=wrap;overflow=hidden;rotatable=0;points=[[0,0.5],[1,0.5]];portConstraint=eastwest;" parent="XEh1SE8O8s3GZXqMS5hk-14" vertex="1">
          <mxGeometry y="160" width="400" height="26" as="geometry" />
        </mxCell>
        <mxCell id="XEh1SE8O8s3GZXqMS5hk-20" value="" style="line;strokeWidth=1;fillColor=none;align=left;verticalAlign=middle;spacingTop=-1;spacingLeft=3;spacingRight=3;rotatable=0;labelPosition=right;points=[];portConstraint=eastwest;strokeColor=inherit;" parent="XEh1SE8O8s3GZXqMS5hk-14" vertex="1">
          <mxGeometry y="186" width="400" height="8" as="geometry" />
        </mxCell>
        <mxCell id="RQETNKoOwh_mLKUs25QG-1" value="&amp;lt;&amp;lt;constructor&amp;gt;&amp;gt; User(email: String, telephoneNumber: String, firstName: String, lastName: String, password: String)&amp;nbsp;" style="text;html=1;strokeColor=none;fillColor=none;align=left;verticalAlign=top;spacingLeft=4;spacingRight=4;whiteSpace=wrap;overflow=hidden;rotatable=0;points=[[0,0.5],[1,0.5]];portConstraint=eastwest;" vertex="1" parent="XEh1SE8O8s3GZXqMS5hk-14">
          <mxGeometry y="194" width="400" height="42" as="geometry" />
        </mxCell>
        <mxCell id="XEh1SE8O8s3GZXqMS5hk-24" value="&amp;lt;&amp;lt;constructor&amp;gt;&amp;gt; User(userID: Int, email: String, telephoneNumber: String, firstName: String, lastName: String, password: String) : this(email, telephoneNumber, firstName, lastName)" style="text;html=1;strokeColor=none;fillColor=none;align=left;verticalAlign=top;spacingLeft=4;spacingRight=4;whiteSpace=wrap;overflow=hidden;rotatable=0;points=[[0,0.5],[1,0.5]];portConstraint=eastwest;" parent="XEh1SE8O8s3GZXqMS5hk-14" vertex="1">
          <mxGeometry y="236" width="400" height="64" as="geometry" />
        </mxCell>
        <mxCell id="XEh1SE8O8s3GZXqMS5hk-27" value="" style="endArrow=none;html=1;rounded=0;startArrow=classic;startFill=1;exitX=0.5;exitY=0;exitDx=0;exitDy=0;entryX=0.5;entryY=1.054;entryDx=0;entryDy=0;entryPerimeter=0;" parent="1" source="SzCHpWfluS4ez0um-08P-17" target="w_FCNFXschIVTDnrTgpB-24" edge="1">
          <mxGeometry width="50" height="50" relative="1" as="geometry">
            <mxPoint x="450" y="1310" as="sourcePoint" />
            <mxPoint x="450" y="1070" as="targetPoint" />
            <Array as="points" />
          </mxGeometry>
        </mxCell>
        <mxCell id="SzCHpWfluS4ez0um-08P-1" value="" style="endArrow=none;html=1;rounded=0;startArrow=halfCircle;startFill=0;entryX=0.503;entryY=1.077;entryDx=0;entryDy=0;entryPerimeter=0;" parent="1" target="w_FCNFXschIVTDnrTgpB-21" edge="1">
          <mxGeometry width="50" height="50" relative="1" as="geometry">
            <mxPoint x="350" y="730" as="sourcePoint" />
            <mxPoint x="200" y="648" as="targetPoint" />
            <Array as="points" />
          </mxGeometry>
        </mxCell>
        <mxCell id="SzCHpWfluS4ez0um-08P-3" value="&amp;lt;&amp;lt; Interface &amp;gt;&amp;gt; IRepository" style="swimlane;html=1;fontStyle=1;align=center;verticalAlign=top;childLayout=stackLayout;horizontal=1;startSize=26;horizontalStack=0;resizeParent=1;resizeLast=0;collapsible=1;marginBottom=0;swimlaneFillColor=#ffffff;rounded=0;shadow=0;comic=0;labelBackgroundColor=none;strokeWidth=1;fillColor=none;fontFamily=Verdana;fontSize=12" parent="1" vertex="1">
          <mxGeometry x="-360" y="830" width="260" height="230" as="geometry" />
        </mxCell>
        <mxCell id="SzCHpWfluS4ez0um-08P-4" value="+ Add(entity: T)" style="text;html=1;strokeColor=none;fillColor=none;align=left;verticalAlign=top;spacingLeft=4;spacingRight=4;whiteSpace=wrap;overflow=hidden;rotatable=0;points=[[0,0.5],[1,0.5]];portConstraint=eastwest;" parent="SzCHpWfluS4ez0um-08P-3" vertex="1">
          <mxGeometry y="26" width="260" height="26" as="geometry" />
        </mxCell>
        <mxCell id="SzCHpWfluS4ez0um-08P-5" value="+ Update(entity: T)" style="text;html=1;strokeColor=none;fillColor=none;align=left;verticalAlign=top;spacingLeft=4;spacingRight=4;whiteSpace=wrap;overflow=hidden;rotatable=0;points=[[0,0.5],[1,0.5]];portConstraint=eastwest;" parent="SzCHpWfluS4ez0um-08P-3" vertex="1">
          <mxGeometry y="52" width="260" height="26" as="geometry" />
        </mxCell>
        <mxCell id="SzCHpWfluS4ez0um-08P-7" value="+ Delete(ID : Int)" style="text;html=1;strokeColor=none;fillColor=none;align=left;verticalAlign=top;spacingLeft=4;spacingRight=4;whiteSpace=wrap;overflow=hidden;rotatable=0;points=[[0,0.5],[1,0.5]];portConstraint=eastwest;" parent="SzCHpWfluS4ez0um-08P-3" vertex="1">
          <mxGeometry y="78" width="260" height="26" as="geometry" />
        </mxCell>
        <mxCell id="SzCHpWfluS4ez0um-08P-6" value="+ GetAll() : IEnumerable&amp;lt;T&amp;gt;" style="text;html=1;strokeColor=none;fillColor=none;align=left;verticalAlign=top;spacingLeft=4;spacingRight=4;whiteSpace=wrap;overflow=hidden;rotatable=0;points=[[0,0.5],[1,0.5]];portConstraint=eastwest;" parent="SzCHpWfluS4ez0um-08P-3" vertex="1">
          <mxGeometry y="104" width="260" height="26" as="geometry" />
        </mxCell>
        <mxCell id="SzCHpWfluS4ez0um-08P-11" value="+ GetBy(parameter : String) : T" style="text;html=1;strokeColor=none;fillColor=none;align=left;verticalAlign=top;spacingLeft=4;spacingRight=4;whiteSpace=wrap;overflow=hidden;rotatable=0;points=[[0,0.5],[1,0.5]];portConstraint=eastwest;" parent="SzCHpWfluS4ez0um-08P-3" vertex="1">
          <mxGeometry y="130" width="260" height="26" as="geometry" />
        </mxCell>
        <mxCell id="SzCHpWfluS4ez0um-08P-9" value="" style="line;html=1;strokeWidth=1;fillColor=none;align=left;verticalAlign=middle;spacingTop=-1;spacingLeft=3;spacingRight=3;rotatable=0;labelPosition=right;points=[];portConstraint=eastwest;" parent="SzCHpWfluS4ez0um-08P-3" vertex="1">
          <mxGeometry y="156" width="260" height="8" as="geometry" />
        </mxCell>
        <mxCell id="SzCHpWfluS4ez0um-08P-14" value="" style="endArrow=oval;html=1;rounded=0;endFill=0;exitX=0.5;exitY=0;exitDx=0;exitDy=0;startArrow=classic;startFill=1;" parent="1" source="wk8aedMz6wveuseHpSyb-1" edge="1">
          <mxGeometry width="50" height="50" relative="1" as="geometry">
            <mxPoint x="350" y="730" as="sourcePoint" />
            <mxPoint x="350" y="730" as="targetPoint" />
          </mxGeometry>
        </mxCell>
        <mxCell id="SzCHpWfluS4ez0um-08P-15" value="IRepository" style="edgeLabel;html=1;align=center;verticalAlign=middle;resizable=0;points=[];" parent="SzCHpWfluS4ez0um-08P-14" vertex="1" connectable="0">
          <mxGeometry x="0.6843" relative="1" as="geometry">
            <mxPoint as="offset" />
          </mxGeometry>
        </mxCell>
        <mxCell id="SzCHpWfluS4ez0um-08P-17" value="&amp;lt;&amp;lt; Programmability &amp;gt;&amp;gt; Store Procedures" style="swimlane;html=1;fontStyle=1;align=center;verticalAlign=top;childLayout=stackLayout;horizontal=1;startSize=26;horizontalStack=0;resizeParent=1;resizeLast=0;collapsible=1;marginBottom=0;swimlaneFillColor=#ffffff;rounded=0;shadow=0;comic=0;labelBackgroundColor=none;strokeWidth=1;fillColor=none;fontFamily=Verdana;fontSize=12" parent="1" vertex="1">
          <mxGeometry x="50" y="1275" width="300" height="230" as="geometry" />
        </mxCell>
        <mxCell id="SzCHpWfluS4ez0um-08P-18" value="fyldetekst" style="text;html=1;strokeColor=none;fillColor=none;align=left;verticalAlign=top;spacingLeft=4;spacingRight=4;whiteSpace=wrap;overflow=hidden;rotatable=0;points=[[0,0.5],[1,0.5]];portConstraint=eastwest;" parent="SzCHpWfluS4ez0um-08P-17" vertex="1">
          <mxGeometry y="26" width="300" height="26" as="geometry" />
        </mxCell>
        <mxCell id="SzCHpWfluS4ez0um-08P-23" value="" style="line;html=1;strokeWidth=1;fillColor=none;align=left;verticalAlign=middle;spacingTop=-1;spacingLeft=3;spacingRight=3;rotatable=0;labelPosition=right;points=[];portConstraint=eastwest;" parent="SzCHpWfluS4ez0um-08P-17" vertex="1">
          <mxGeometry y="52" width="300" height="8" as="geometry" />
        </mxCell>
        <mxCell id="SzCHpWfluS4ez0um-08P-24" value="+ sp_CreateUserAndLogin()" style="text;html=1;strokeColor=none;fillColor=none;align=left;verticalAlign=top;spacingLeft=4;spacingRight=4;whiteSpace=wrap;overflow=hidden;rotatable=0;points=[[0,0.5],[1,0.5]];portConstraint=eastwest;" parent="SzCHpWfluS4ez0um-08P-17" vertex="1">
          <mxGeometry y="60" width="300" height="26" as="geometry" />
        </mxCell>
        <mxCell id="SzCHpWfluS4ez0um-08P-26" value="+ sp_CheckIfUserExist()" style="text;html=1;strokeColor=none;fillColor=none;align=left;verticalAlign=top;spacingLeft=4;spacingRight=4;whiteSpace=wrap;overflow=hidden;rotatable=0;points=[[0,0.5],[1,0.5]];portConstraint=eastwest;" parent="SzCHpWfluS4ez0um-08P-17" vertex="1">
          <mxGeometry y="86" width="300" height="26" as="geometry" />
        </mxCell>
      </root>
    </mxGraphModel>
  </diagram>
</mxfile>
